<svg width="87" height="87" viewBox="0 0 87 87" fill="none" xmlns="http://www.w3.org/2000/svg">
<path d="M12.2273 41.4599C12.6095 41.4599 12.9662 41.4599 13.3485 41.4599C35.3646 41.4599 57.3808 41.4599 79.397 41.4599C79.8811 41.4599 80.3398 41.4344 80.824 41.5618C81.6903 41.8166 82.2764 42.5811 82.3019 43.4475C82.3274 44.3648 81.7158 45.1547 80.7985 45.435C80.3398 45.5879 79.8556 45.537 79.3715 45.537C57.3553 45.537 35.3392 45.537 13.323 45.537C12.9662 45.537 12.584 45.537 12.2273 45.537C12.1763 45.6134 12.1253 45.6898 12.0744 45.7663C12.3547 45.9956 12.6605 46.225 12.9153 46.4798C20.7127 54.2772 28.5101 62.0746 36.3075 69.872C36.5113 70.0758 36.7152 70.2797 36.919 70.4835C37.7599 71.4264 37.7854 72.573 36.97 73.3884C36.18 74.2039 35.0079 74.2039 34.0651 73.3884C33.8612 73.2101 33.7083 73.0317 33.5299 72.8533C24.3565 63.7054 15.2086 54.583 6.08618 45.435C4.63372 43.9826 4.63372 43.0397 6.11166 41.5873C15.2341 32.4139 24.382 23.266 33.5299 14.1435C34.855 12.8185 36.0272 12.6401 36.97 13.6339C37.8873 14.6022 37.7089 15.7234 36.4094 17.0229C28.6375 24.7949 20.8656 32.5668 13.0936 40.3387C12.7879 40.6445 12.4566 40.9502 12.1253 41.2305C12.1508 41.307 12.1763 41.3834 12.2273 41.4599Z" fill="white"/>
</svg>
