<svg width="255" height="255" viewBox="0 0 255 255" fill="none" xmlns="http://www.w3.org/2000/svg">
<path d="M127.5 0C197.916 0 255 57.0837 255 127.5C255 197.916 197.916 255 127.5 255C109.418 255 92.2149 251.235 76.6318 244.447L116.041 244.345C112.47 238.421 110.587 231.634 110.597 224.717C110.597 203.68 127.65 186.629 148.685 186.629C148.925 186.629 149.164 186.644 149.4 186.648C140.633 170.18 123.996 158.531 104.502 156.752C104.274 167.098 88.9381 175.448 70.0488 175.448C51.1574 175.448 35.8238 167.098 35.5938 156.752C24.7495 157.743 14.7865 161.783 6.57129 168.008C2.31013 155.281 0 141.661 0 127.5C0 57.0837 57.0837 0 127.5 0ZM145.201 221.237H133.552V228.2H145.201V239.85H152.168V228.2H163.82V221.237H152.168V209.585H145.201V221.237ZM68.4785 52.793C46.73 52.793 28.7184 69.6181 25.5439 91.5732C25.2122 93.8705 25.0456 96.1887 25.0469 98.5098C25.0469 99.4684 25.0833 100.417 25.1387 101.36C25.2154 102.741 25.3481 104.105 25.542 105.449C25.5739 105.858 25.6052 106.267 25.6436 106.674C28.3834 137.665 46.5148 161.607 68.4785 161.607C90.7212 161.607 109.039 137.04 111.41 105.466C112.078 100.853 112.078 96.1683 111.41 91.5557C108.225 69.6071 90.2161 52.7931 68.4785 52.793ZM91.8838 80.7988C91.8838 80.7988 93.0543 82.6501 94.5605 85.4219C97.8734 91.5171 102.807 102.067 100.505 107.191L100.502 107.2L106.594 100.204L106.598 100.199C106.568 102.059 106.428 103.892 106.17 105.68C106.138 106.089 106.095 106.494 106.057 106.9C103.832 131.446 90.6182 150.926 73.8701 154.411C72.0964 154.779 70.2899 154.964 68.4785 154.965C63.6743 154.965 59.0786 153.661 54.8496 151.281C52.1237 149.728 49.6137 147.823 47.3857 145.614C42.9436 141.264 39.1683 135.577 36.3262 128.949C33.5267 122.426 31.6304 114.994 30.8975 107.021C32.427 107.412 33.8969 108.009 35.2656 108.796C35.6684 109.024 36.0794 109.277 36.498 109.556L36.9189 109.842C36.8992 109.724 32.6487 84.3638 41.6865 80.7988C41.6865 80.7988 71.6991 95.3969 91.8838 80.7988Z" fill="#3183FF"/>
</svg>
